<svg width="100" height="101" viewBox="0 0 100 101" fill="none" xmlns="http://www.w3.org/2000/svg">
<path d="M73.3297 28.7877H67.7894V27.3561C67.7894 25.6646 66.2252 24.2885 64.3026 24.2885C62.3799 24.2885 60.8157 25.6646 60.8157 27.3561V28.7877H41.2892V27.3561C41.2892 25.6646 39.725 24.2885 37.8024 24.2885C35.8797 24.2885 34.3155 25.6646 34.3155 27.3561V28.8255C34.2167 28.8015 34.1132 28.7877 34.0056 28.7877H29.3746C26.1702 28.7877 23.5632 31.0813 23.5632 33.9004V51.3179C23.5632 51.8826 24.0836 52.3404 24.7255 52.3404C25.3673 52.3404 25.8877 51.8826 25.8877 51.3179V39.32H67.7894C68.4312 39.32 68.9517 38.8622 68.9517 38.2974C68.9517 37.7327 68.4312 37.2749 67.7894 37.2749H25.8877V33.9004C25.8877 32.2089 27.452 30.8328 29.3746 30.8328H34.0056C34.1132 30.8328 34.2167 30.8189 34.3155 30.7949V32.111C34.3155 33.8025 35.8797 35.1786 37.8024 35.1786C39.725 35.1786 41.2892 33.8025 41.2892 32.111V30.8328H60.8157V32.111C60.8157 33.8025 62.3799 35.1786 64.3026 35.1786C66.2252 35.1786 67.7894 33.8025 67.7894 32.111V30.8328H73.3297C75.2524 30.8328 76.8166 32.2089 76.8166 33.9004V72.7568C76.8166 73.772 75.8778 74.598 74.7238 74.598C73.5697 74.598 72.6309 73.772 72.6309 72.7568V70.1115C72.6309 69.5468 72.1105 69.089 71.4687 69.089H57.9488C57.307 69.089 56.7865 69.5468 56.7865 70.1115C56.7865 70.6763 57.307 71.1341 57.9488 71.1341H70.3064V72.7568C70.3064 73.4226 70.4979 74.0496 70.8346 74.598H24.0487C22.8951 74.598 21.9565 73.7723 21.9565 72.7574V71.1341H47.9715C48.6133 71.1341 49.1338 70.6763 49.1338 70.1115C49.1338 69.5468 48.6133 69.089 47.9715 69.089H36.3583C38.3893 67.5502 39.679 65.274 39.679 62.7364C39.679 58.1129 35.4035 54.3515 30.1482 54.3515C24.8929 54.3515 20.6175 58.1129 20.6175 62.7364C20.6175 65.274 21.9071 67.5502 23.9381 69.089H20.7942C20.1524 69.089 19.632 69.5468 19.632 70.1115V72.7574C19.632 74.9 21.6133 76.6431 24.0487 76.6431H74.7238C77.1595 76.6431 79.1412 74.8997 79.1412 72.7568V33.9004C79.1412 31.0813 76.5341 28.7877 73.3297 28.7877ZM38.9647 32.111C38.9647 32.6748 38.4433 33.1335 37.8024 33.1335C37.1615 33.1335 36.6401 32.6748 36.6401 32.111V27.3561C36.6401 26.7923 37.1615 26.3336 37.8024 26.3336C38.4433 26.3336 38.9647 26.7923 38.9647 27.3561V32.111ZM65.4649 32.111C65.4649 32.6748 64.9435 33.1335 64.3026 33.1335C63.6617 33.1335 63.1403 32.6748 63.1403 32.111V27.3561C63.1403 26.7923 63.6617 26.3336 64.3026 26.3336C64.9435 26.3336 65.4649 26.7923 65.4649 27.3561V32.111ZM22.942 62.7364C22.942 59.2406 26.1747 56.3966 30.1482 56.3966C34.1218 56.3966 37.3544 59.2406 37.3544 62.7364C37.3544 66.2322 34.1218 69.0762 30.1482 69.0762C26.1747 69.0762 22.942 66.2322 22.942 62.7364Z" fill="#FF7D54"/>
<path d="M74.0629 37.5745C73.8468 37.3843 73.547 37.2749 73.2413 37.2749C72.9355 37.2749 72.6357 37.3843 72.4195 37.5745C72.2033 37.7647 72.079 38.0285 72.079 38.2974C72.079 38.5664 72.2032 38.8302 72.4195 39.0204C72.6358 39.2106 72.9355 39.32 73.2413 39.32C73.547 39.32 73.8468 39.2106 74.0629 39.0204C74.2791 38.8302 74.4036 38.5664 74.4036 38.2974C74.4036 38.0285 74.2792 37.7647 74.0629 37.5745Z" fill="#FF7D54"/>
<path d="M54.3435 69.3882C54.1275 69.198 53.8276 69.0897 53.5219 69.0897C53.2162 69.0897 52.9164 69.198 52.7002 69.3882C52.484 69.5794 52.3596 69.8422 52.3596 70.1111C52.3596 70.3811 52.4839 70.6439 52.7002 70.8351C52.9164 71.0252 53.2162 71.1336 53.5219 71.1336C53.8276 71.1336 54.1275 71.0252 54.3435 70.8351C54.5597 70.6439 54.6842 70.38 54.6842 70.1111C54.6842 69.8422 54.5598 69.5794 54.3435 69.3882Z" fill="#FF7D54"/>
<path d="M45.9281 55.374C43.4927 55.374 41.5114 57.1172 41.5114 59.2597C41.5114 61.4023 43.4927 63.1454 45.9281 63.1454C48.3634 63.1454 50.3447 61.4023 50.3447 59.2597C50.3447 57.1172 48.3634 55.374 45.9281 55.374ZM45.9281 61.1003C44.7745 61.1003 43.8359 60.2746 43.8359 59.2597C43.8359 58.2448 44.7745 57.4191 45.9281 57.4191C47.0816 57.4191 48.0202 58.2448 48.0202 59.2597C48.0202 60.2746 47.0816 61.1003 45.9281 61.1003Z" fill="#FF7D54"/>
<path d="M56.7761 55.374C54.3407 55.374 52.3594 57.1172 52.3594 59.2597C52.3594 61.4023 54.3407 63.1454 56.7761 63.1454C59.2114 63.1454 61.1928 61.4023 61.1928 59.2597C61.1928 57.1172 59.2114 55.374 56.7761 55.374ZM56.7761 61.1003C55.6225 61.1003 54.684 60.2746 54.684 59.2597C54.684 58.2448 55.6225 57.4191 56.7761 57.4191C57.9296 57.4191 58.8682 58.2448 58.8682 59.2597C58.8682 60.2746 57.9296 61.1003 56.7761 61.1003Z" fill="#FF7D54"/>
<path d="M67.6242 55.374C65.1889 55.374 63.2075 57.1172 63.2075 59.2597C63.2075 61.4023 65.1889 63.1454 67.6242 63.1454C70.0595 63.1454 72.0408 61.4023 72.0408 59.2597C72.0408 57.1172 70.0595 55.374 67.6242 55.374ZM67.6242 61.1003C66.4706 61.1003 65.5321 60.2746 65.5321 59.2597C65.5321 58.2448 66.4706 57.4191 67.6242 57.4191C68.7777 57.4191 69.7163 58.2448 69.7163 59.2597C69.7163 60.2746 68.7777 61.1003 67.6242 61.1003Z" fill="#FF7D54"/>
<path d="M35.0802 44.7395C32.6448 44.7395 30.6635 46.4826 30.6635 48.6252C30.6635 50.7677 32.6448 52.5109 35.0802 52.5109C37.5155 52.5109 39.4968 50.7677 39.4968 48.6252C39.4968 46.4826 37.5155 44.7395 35.0802 44.7395ZM35.0802 50.4658C33.9266 50.4658 32.988 49.6401 32.988 48.6252C32.988 47.6103 33.9266 46.7846 35.0802 46.7846C36.2337 46.7846 37.1723 47.6103 37.1723 48.6252C37.1723 49.6401 36.2337 50.4658 35.0802 50.4658Z" fill="#FF7D54"/>
<path d="M56.7761 44.7395C54.3407 44.7395 52.3594 46.4826 52.3594 48.6252C52.3594 50.7677 54.3407 52.5109 56.7761 52.5109C59.2114 52.5109 61.1928 50.7677 61.1928 48.6252C61.1928 46.4826 59.2114 44.7395 56.7761 44.7395ZM56.7761 50.4658C55.6225 50.4658 54.684 49.6401 54.684 48.6252C54.684 47.6103 55.6225 46.7846 56.7761 46.7846C57.9296 46.7846 58.8682 47.6103 58.8682 48.6252C58.8682 49.6401 57.9296 50.4658 56.7761 50.4658Z" fill="#FF7D54"/>
<path d="M67.6242 44.7395C65.1889 44.7395 63.2075 46.4826 63.2075 48.6252C63.2075 50.7677 65.1889 52.5109 67.6242 52.5109C70.0595 52.5109 72.0408 50.7677 72.0408 48.6252C72.0408 46.4826 70.0595 44.7395 67.6242 44.7395ZM67.6242 50.4658C66.4706 50.4658 65.5321 49.6401 65.5321 48.6252C65.5321 47.6103 66.4706 46.7846 67.6242 46.7846C68.7777 46.7846 69.7163 47.6103 69.7163 48.6252C69.7163 49.6401 68.7777 50.4658 67.6242 50.4658Z" fill="#FF7D54"/>
<path d="M45.9281 44.7395C43.4927 44.7395 41.5114 46.4826 41.5114 48.6252C41.5114 50.7677 43.4927 52.5109 45.9281 52.5109C48.3634 52.5109 50.3447 50.7677 50.3447 48.6252C50.3447 46.4826 48.3634 44.7395 45.9281 44.7395ZM45.9281 50.4658C44.7745 50.4658 43.8359 49.6401 43.8359 48.6252C43.8359 47.6103 44.7745 46.7846 45.9281 46.7846C47.0816 46.7846 48.0202 47.6103 48.0202 48.6252C48.0202 49.6401 47.0816 50.4658 45.9281 50.4658Z" fill="#FF7D54"/>
<path d="M34.2888 60.2444C33.8348 59.8451 33.0991 59.8451 32.645 60.2444L28.8599 63.5745L27.5664 62.4365C27.1124 62.0372 26.3767 62.0372 25.9226 62.4365C25.4687 62.8358 25.4687 63.4833 25.9226 63.8827L28.038 65.7436C28.2561 65.9354 28.5516 66.0431 28.8599 66.0431C29.1681 66.0431 29.4637 65.9354 29.6817 65.7436L34.2888 61.6905C34.7427 61.2912 34.7427 60.6437 34.2888 60.2444Z" fill="#FF7D54"/>
<circle cx="50" cy="50.9756" r="47.5" stroke="#FF7D54" stroke-width="5"/>
</svg>
