<svg width="100" height="100" viewBox="0 0 100 100" fill="none" xmlns="http://www.w3.org/2000/svg">
<path d="M80.4987 39.0793L60.1009 21.134C58.9998 20.1654 57.5314 19.6319 55.966 19.6319C54.4008 19.6319 52.9323 20.1652 51.8312 21.1338L19.4992 49.5788C18.3982 50.5475 17.7917 51.8393 17.7917 53.2165C17.7917 54.5936 18.3982 55.8856 19.4992 56.8541L22.0144 59.067C22.0147 59.0671 22.0148 59.0673 22.0151 59.0675C22.0153 59.0678 22.0156 59.068 22.0158 59.0682L38.9202 73.9403H36.5796C35.8385 73.9403 35.2376 74.4688 35.2376 75.1209C35.2376 75.7728 35.8385 76.3015 36.5796 76.3015H44.0264C44.0282 76.3015 44.0298 76.3016 44.0316 76.3016C44.0333 76.3016 44.0349 76.3015 44.0367 76.3015L63.4188 76.3017C64.1598 76.3017 64.7607 75.773 64.7607 75.1211C64.7607 74.469 64.1598 73.9405 63.4188 73.9405L49.1434 73.9403L80.4988 46.3546C82.7785 44.3487 82.7785 41.0849 80.4987 39.0793ZM78.6009 44.6849L46.2687 73.13C45.6757 73.6516 44.8831 73.9392 44.0365 73.9403H44.0263C43.1799 73.9391 42.3875 73.6516 41.7948 73.13L24.8619 58.2327L55.9122 30.9152C56.4362 30.4542 56.4362 29.7066 55.9122 29.2456C55.388 28.7846 54.5385 28.7846 54.0143 29.2457L22.964 56.5632L21.3968 55.1845C20.8029 54.6619 20.4757 53.9631 20.4757 53.2166C20.4757 52.4701 20.8029 51.7711 21.397 51.2484L53.7289 22.8036C54.323 22.281 55.1175 21.9932 55.966 21.9932C56.8145 21.9932 57.609 22.281 58.2031 22.8037L65.463 29.1906L34.4123 56.5084C33.8883 56.9693 33.8883 57.7169 34.4123 58.1782C34.6744 58.4086 35.0178 58.5238 35.3612 58.5238C35.7045 58.5238 36.048 58.4085 36.3101 58.1781L67.3608 30.8603L78.6009 40.7488C79.8342 41.834 79.8341 43.5998 78.6009 44.6849Z" fill="#FF7D54"/>
<path d="M50.8557 53.7294C50.3317 53.2684 49.4822 53.2685 48.9578 53.7294L38.3977 63.0198C37.8736 63.4808 37.8736 64.2283 38.3977 64.6895C38.6597 64.9201 39.0032 65.0353 39.3465 65.0353C39.6899 65.0353 40.0334 64.92 40.2954 64.6895L50.8555 55.3991C51.3797 54.9379 51.3797 54.1904 50.8557 53.7294Z" fill="#FF7D54"/>
<path d="M46.5245 62.5487L42.1933 66.3592C41.6693 66.8202 41.6693 67.5678 42.1933 68.0289C42.4554 68.2594 42.7988 68.3747 43.1422 68.3747C43.4858 68.3747 43.829 68.2594 44.0911 68.0289L48.4222 64.2184C48.9463 63.7574 48.9463 63.0098 48.4222 62.5487C47.8982 62.0875 47.0489 62.0875 46.5245 62.5487Z" fill="#FF7D54"/>
<path d="M50.51 59.0425L49.9407 59.5433C49.4166 60.0043 49.4166 60.7518 49.9406 61.213C50.2025 61.4436 50.5461 61.5589 50.8895 61.5589C51.2328 61.5589 51.5763 61.4436 51.8382 61.213L52.4075 60.7123C52.9317 60.2512 52.9317 59.5038 52.4077 59.0427C51.8839 58.5816 51.034 58.5815 50.51 59.0425Z" fill="#FF7D54"/>
<path d="M69.007 37.7603C68.7554 37.539 68.414 37.4146 68.0581 37.4146C67.7022 37.4146 67.361 37.539 67.1092 37.7603L61.4155 42.7694C61.1639 42.9909 61.0225 43.2911 61.0225 43.6042C61.0225 43.9174 61.1639 44.2176 61.4155 44.439L65.2113 47.7781C65.4734 48.0087 65.8169 48.1239 66.1602 48.1239C66.5038 48.1239 66.847 48.0086 67.1091 47.7781L72.8026 42.7693C73.3266 42.3083 73.3266 41.5607 72.8026 41.0997L69.007 37.7603ZM66.1601 45.2738L64.2622 43.6042L68.058 40.2649L69.9558 41.9346L66.1601 45.2738Z" fill="#FF7D54"/>
<path d="M58.0949 28.506C58.4385 28.506 58.782 28.3907 59.0439 28.16L59.6132 27.6589C60.1371 27.1978 60.137 26.4502 59.6129 25.9893C59.0888 25.5284 58.239 25.5285 57.7151 25.9896L57.1458 26.4907C56.6219 26.9518 56.622 27.6994 57.1461 28.1603C57.4082 28.3909 57.7514 28.506 58.0949 28.506Z" fill="#FF7D54"/>
<path d="M31.2807 59.263L30.7114 59.7638C30.1874 60.2247 30.1874 60.9723 30.7114 61.4335C30.9734 61.664 31.3169 61.7792 31.6603 61.7792C32.0036 61.7792 32.3471 61.664 32.6091 61.4335L33.1784 60.9326C33.7025 60.4715 33.7025 59.724 33.1784 59.263C32.6543 58.8018 31.8048 58.8018 31.2807 59.263Z" fill="#FF7D54"/>
<circle cx="50" cy="50" r="47.5" stroke="#FF7D54" stroke-width="5"/>
</svg>
