<svg width="100" height="100" viewBox="0 0 100 100" fill="none" xmlns="http://www.w3.org/2000/svg">
<path d="M81.862 48.4892L71.9373 39.7361C71.7144 39.5396 71.4123 39.4295 71.0972 39.4295H63.2383V32.9455C63.2383 32.369 62.7072 31.9019 62.052 31.9019H38.5545C37.8992 31.9019 37.3682 32.369 37.3682 32.9455C37.3682 33.5219 37.8992 33.9891 38.5545 33.9891H60.8658V59.4539H48.1168C47.0737 57.9528 45.1938 56.9492 43.052 56.9492C41.1142 56.9492 39.3904 57.7714 38.307 59.0401C37.2241 57.7714 35.5003 56.9492 33.562 56.9492C31.4207 56.9492 29.5408 57.9528 28.4977 59.4539H23.8449V33.9891H29.0644C29.7197 33.9891 30.2507 33.5219 30.2507 32.9455C30.2507 32.369 29.7197 31.9019 29.0644 31.9019H22.6587C22.0034 31.9019 21.4724 32.369 21.4724 32.9455V60.4975C21.4724 61.074 22.0034 61.5412 22.6587 61.5412H27.6752C27.647 61.7466 27.6307 61.9553 27.6307 62.1673C27.6307 63.341 28.0742 64.4254 28.8202 65.2982H22.6587C22.0034 65.2982 21.4724 65.7654 21.4724 66.3419C21.4724 66.9183 22.0034 67.3855 22.6587 67.3855H43.0525C46.323 67.3855 48.9838 65.0447 48.9838 62.1673C48.9838 61.9553 48.9676 61.7466 48.9393 61.5412H66.1196C66.0918 61.7466 66.0756 61.9553 66.0756 62.1673C66.0756 63.341 66.5185 64.4254 67.2651 65.2982H57.2954C56.6402 65.2982 56.1092 65.7654 56.1092 66.3419C56.1092 66.9183 56.6402 67.3855 57.2954 67.3855H72.0068C75.2774 67.3855 77.9381 65.0447 77.9381 62.1673C77.9381 61.9553 77.9219 61.7466 77.8941 61.5412H81.0224C81.6776 61.5412 82.2086 61.074 82.2086 60.4975V49.2262C82.2086 48.9498 82.084 48.6848 81.862 48.4892ZM30.0037 62.1673C30.0037 60.4409 31.6001 59.0364 33.5625 59.0364C35.5249 59.0364 37.1212 60.4409 37.1212 62.1673C37.1212 63.8938 35.5249 65.2982 33.5625 65.2982C31.6001 65.2982 30.0037 63.8938 30.0037 62.1673ZM38.3075 65.2946C38.3084 65.2958 38.3093 65.297 38.3107 65.2982H38.3042C38.3052 65.297 38.3061 65.2958 38.3075 65.2946ZM43.0525 65.2982C41.0901 65.2982 39.4937 63.8938 39.4937 62.1673C39.4937 60.4409 41.0901 59.0364 43.0525 59.0364C45.0149 59.0364 46.6113 60.4409 46.6113 62.1673C46.6113 63.8938 45.0145 65.2982 43.0525 65.2982ZM79.8361 51.9397H71.7867L77.1114 47.2547L79.8361 49.658V51.9397ZM67.7363 50.8961V48.7542L73.2807 43.8764L75.4358 45.7769L68.5074 51.8724C68.0579 51.724 67.7363 51.3429 67.7363 50.8961ZM71.6051 42.3986L67.7363 45.8022V41.5168H70.6051L71.6051 42.3986ZM72.0068 65.2982C70.0444 65.2982 68.4481 63.8938 68.4481 62.1673C68.4481 60.4409 70.0444 59.0364 72.0068 59.0364C73.9692 59.0364 75.5656 60.4409 75.5656 62.1673C75.5656 63.8938 73.9692 65.2982 72.0068 65.2982ZM77.0711 59.4539C76.0285 57.9528 74.1486 56.9492 72.0068 56.9492C69.8651 56.9492 67.9851 57.9528 66.9425 59.4539H63.2383V41.5168H65.3638V50.8961C65.3638 52.6225 66.9601 54.027 68.9226 54.027H79.8361V59.4539H77.0711Z" fill="#FF7D54"/>
<path d="M52.5501 65.2982C52.2382 65.2982 51.9319 65.4099 51.7114 65.6039C51.4908 65.798 51.3647 66.0675 51.3647 66.3418C51.3647 66.6162 51.4908 66.8857 51.7114 67.0797C51.9333 67.2738 52.2382 67.3855 52.5501 67.3855C52.8633 67.3855 53.1682 67.2738 53.3897 67.0797C53.6108 66.8857 53.7373 66.6162 53.7373 66.3418C53.7373 66.0675 53.6108 65.798 53.3897 65.6039C53.1682 65.4099 52.8633 65.2982 52.5501 65.2982Z" fill="#FF7D54"/>
<path d="M33.8095 33.9892C34.1214 33.9892 34.4277 33.8775 34.6483 33.6834C34.8688 33.4894 34.9958 33.2199 34.9958 32.9455C34.9958 32.6711 34.8688 32.4017 34.6483 32.2076C34.4277 32.0136 34.1214 31.9019 33.8095 31.9019C33.4977 31.9019 33.1914 32.0136 32.9708 32.2076C32.7503 32.4017 32.6233 32.6711 32.6233 32.9455C32.6233 33.2199 32.7503 33.4894 32.9708 33.6834C33.1914 33.8775 33.4977 33.9892 33.8095 33.9892Z" fill="#FF7D54"/>
<path d="M28.0991 50.2774C27.1519 50.2774 26.3891 49.9643 25.8107 49.3379C25.2323 48.7115 24.9431 47.8823 24.9431 46.8501C24.9431 45.6757 25.3046 44.6863 26.0276 43.882C26.7506 43.0776 27.6399 42.6755 28.6955 42.6755C29.1149 42.6755 29.5017 42.7146 29.856 42.7929C30.2175 42.8641 30.4741 42.9388 30.626 43.0171L30.8429 43.1346L30.2139 44.6187C29.9969 44.4763 29.7041 44.3446 29.3354 44.2236C28.9667 44.0955 28.6413 44.0314 28.3593 44.0314C27.7737 44.0314 27.3037 44.2343 26.9495 44.64C26.5952 45.0457 26.4181 45.5831 26.4181 46.2522C26.4181 47.1562 26.5843 47.8609 26.9169 48.3663C27.2567 48.8717 27.7267 49.1243 28.3268 49.1243C28.7172 49.1243 29.086 49.071 29.433 48.9642V47.3093H28.034L28.1424 46.2309H30.7453L30.6477 47.9712L30.7236 49.8183C29.6607 50.1244 28.7859 50.2774 28.0991 50.2774Z" fill="#FF7D54"/>
<path d="M34.3214 47.3199H33.7032V47.384L33.8333 50.16H32.3801L32.5102 47.5655L32.3801 42.7929H34.7335C35.4276 42.7929 35.9807 42.978 36.3928 43.3481C36.8049 43.7182 37.011 44.2094 37.011 44.8215C37.011 45.2842 36.888 45.7077 36.6422 46.0921C36.4036 46.4693 36.0783 46.7683 35.6662 46.9889L37.5532 49.6155L36.241 50.2774L34.5491 47.3093C34.4985 47.3164 34.4226 47.3199 34.3214 47.3199ZM34.3431 43.8713H33.8116L33.7357 46.2843H34.4732C34.8347 46.2843 35.1131 46.1668 35.3083 45.9319C35.5107 45.697 35.6119 45.3625 35.6119 44.9283C35.6119 44.2236 35.189 43.8713 34.3431 43.8713Z" fill="#FF7D54"/>
<path d="M43.042 50.2134L42.5105 48.1314H39.9186L39.3438 50.16L37.9556 50.0532L38.91 47.4587L40.3632 42.8676L42.3045 42.7288L43.7035 47.2986L44.6037 49.9785L43.042 50.2134ZM41.3284 44.1168H41.1874L40.2548 46.9996H42.1852L41.3284 44.1168ZM42.4889 40.444L42.6081 41.533C41.661 41.7466 40.8115 41.9174 40.0595 42.0455L40.0053 41.2768C40.6271 41.0988 41.455 40.8212 42.4889 40.444Z" fill="#FF7D54"/>
<path d="M44.7618 44.0208L44.8811 42.7929H50.0325L49.9132 44.0208L48.0261 43.8606L47.9828 47.384L48.1129 50.16H46.5946L46.7247 47.5655L46.6813 43.8713L44.7618 44.0208Z" fill="#FF7D54"/>
<path d="M52.4437 42.7395L52.2918 47.384L52.422 50.16H50.9037L51.0338 47.5655L50.9037 43.0064L52.4437 42.7395Z" fill="#FF7D54"/>
<path d="M54.2956 48.0353C54.9101 48.6403 55.5247 48.9428 56.1392 48.9428C56.4574 48.9428 56.7104 48.8717 56.8984 48.7293C57.0936 48.5798 57.1912 48.3912 57.1912 48.1634C57.1912 47.9285 57.0755 47.7328 56.8442 47.5762C56.6128 47.4125 56.3308 47.2701 55.9983 47.1491C55.6729 47.0281 55.3475 46.8929 55.0222 46.7434C54.6968 46.5868 54.4185 46.3661 54.1871 46.0814C53.9557 45.7967 53.8401 45.4515 53.8401 45.0457C53.8401 44.4051 54.1112 43.8535 54.6535 43.3908C55.1957 42.921 55.8392 42.6861 56.5839 42.6861C56.9237 42.6861 57.2527 42.7217 57.5708 42.7929C57.8889 42.8641 58.1962 42.9673 58.4926 43.1025L57.7552 44.6614C57.5527 44.5048 57.2744 44.3624 56.9201 44.2343C56.573 44.099 56.2658 44.0314 55.9983 44.0314C55.738 44.0314 55.5247 44.0955 55.3584 44.2236C55.1993 44.3446 55.1198 44.5083 55.1198 44.7148C55.1198 44.9212 55.2355 45.1062 55.4668 45.27C55.6982 45.4266 55.9766 45.5654 56.3019 45.6864C56.6345 45.8074 56.9635 45.9426 57.2888 46.0921C57.6214 46.2344 57.9034 46.448 58.1347 46.7327C58.3661 47.0174 58.4818 47.3626 58.4818 47.7684C58.4818 48.4375 58.2107 49.0247 57.6684 49.5301C57.1261 50.0283 56.4935 50.2774 55.7705 50.2774C55.2282 50.2774 54.7474 50.1493 54.3281 49.8931C53.9594 49.6724 53.6991 49.4767 53.5473 49.3058L53.4496 49.1884L54.2956 48.0353Z" fill="#FF7D54"/>
<circle cx="50" cy="50" r="47.5" stroke="#FF7D54" stroke-width="5"/>
</svg>
