<svg width="100" height="101" viewBox="0 0 100 101" fill="none" xmlns="http://www.w3.org/2000/svg">
<path d="M48.4728 73.1614H52.6899C53.2721 73.1614 53.7441 72.7461 53.7441 72.2339C53.7441 71.7217 53.2721 71.3064 52.6899 71.3064H48.4728C47.8906 71.3064 47.4186 71.7217 47.4186 72.2339C47.4186 72.7461 47.8906 73.1614 48.4728 73.1614Z" fill="#FF7D54"/>
<path d="M32.6595 35.1337C33.2417 35.1337 33.7137 34.7184 33.7137 34.2061V28.6411H67.45V36.0612C67.45 36.5734 67.9221 36.9887 68.5043 36.9887C69.0865 36.9887 69.5585 36.5734 69.5585 36.0612V24.931C69.5585 23.2615 67.1253 21.221 64.2872 21.221H36.8765C33.9668 21.224 31.6087 23.2986 31.6052 25.8586V34.2061C31.6052 34.7184 32.0773 35.1337 32.6595 35.1337ZM33.7137 25.8586C33.7137 24.3218 35.1297 23.076 36.8765 23.076H64.2872C66.1143 23.076 67.45 24.3745 67.45 24.931V26.7861H33.7137V25.8586Z" fill="#FF7D54"/>
<path d="M68.5038 62.0313C67.9216 62.0313 67.4495 62.4466 67.4495 62.9588V67.5964H33.7133V63.8863C33.7133 63.3741 33.2412 62.9588 32.659 62.9588C32.0768 62.9588 31.6047 63.3741 31.6047 63.8863V72.2339C31.6082 74.7938 33.9663 76.8685 36.876 76.8715H64.2868C67.1965 76.8685 69.5546 74.7938 69.558 72.2339V62.9588C69.558 62.4466 69.086 62.0313 68.5038 62.0313ZM67.4495 72.2339C67.4495 73.7707 66.0335 75.0164 64.2868 75.0164H36.876C35.1293 75.0164 33.7133 73.7707 33.7133 72.2339V69.4514H67.4495V72.2339Z" fill="#FF7D54"/>
<path d="M48.4728 24.0037H46.3643C45.7821 24.0037 45.3101 24.419 45.3101 24.9312C45.3101 25.4434 45.7821 25.8587 46.3643 25.8587H48.4728C49.0551 25.8587 49.5271 25.4434 49.5271 24.9312C49.5271 24.419 49.0551 24.0037 48.4728 24.0037Z" fill="#FF7D54"/>
<path d="M54.7984 24.0037H52.6899C52.1077 24.0037 51.6356 24.419 51.6356 24.9312C51.6356 25.4434 52.1077 25.8587 52.6899 25.8587H54.7984C55.3806 25.8587 55.8527 25.4434 55.8527 24.9312C55.8527 24.419 55.3806 24.0037 54.7984 24.0037Z" fill="#FF7D54"/>
<path d="M81.9666 39.1786C81.7662 38.9663 81.4686 38.8435 81.1549 38.8437H53.4827L52.945 35.654C52.7077 34.2932 51.3809 33.286 49.816 33.2787H45.3101V35.1337H49.816C50.339 35.1334 50.7832 35.4705 50.8597 35.9258L54.5433 57.8011C54.7806 59.162 56.1074 60.1692 57.6723 60.1765H60.2637C60.8349 61.619 62.6272 62.3809 64.2667 61.8784C65.173 61.6007 65.8855 60.9739 66.2012 60.1765H70.8062C71.3885 61.6254 73.1956 62.3846 74.8423 61.8723C76.4891 61.36 77.3523 59.7702 76.7699 58.3214C76.1877 56.8726 74.3806 56.1133 72.7338 56.6256C71.8331 56.9057 71.1246 57.5291 70.8062 58.3214H66.2012C65.63 56.8789 63.8377 56.117 62.1982 56.6195C61.292 56.8973 60.5794 57.524 60.2637 58.3214H57.6723C57.1504 58.319 56.7079 57.9833 56.6286 57.5294L56.2933 55.5389H77.9921C78.4988 55.5386 78.9337 55.2211 79.0274 54.783L82.1901 39.9428C82.2486 39.6715 82.1667 39.3913 81.9666 39.1786ZM73.775 58.3214C74.3573 58.3214 74.8293 58.7367 74.8293 59.249C74.8293 59.7612 74.3573 60.1765 73.775 60.1765C73.1928 60.1765 72.7208 59.7612 72.7208 59.249C72.7208 58.7367 73.1928 58.3214 73.775 58.3214ZM63.2325 58.3214C63.8147 58.3214 64.2867 58.7367 64.2867 59.249C64.2867 59.7612 63.8147 60.1765 63.2325 60.1765C62.6502 60.1765 62.1782 59.7612 62.1782 59.249C62.1782 58.7367 62.6502 58.3214 63.2325 58.3214ZM77.117 53.6839H55.9813L53.7958 40.6988H79.8897L77.117 53.6839Z" fill="#FF7D54"/>
<path d="M46.3644 49.0463C46.3644 42.387 40.2284 36.9887 32.6591 36.9887C25.0898 36.9887 18.9537 42.387 18.9537 49.0463C18.9537 55.7055 25.0898 61.1038 32.6591 61.1038C40.2247 61.0962 46.3557 55.7023 46.3644 49.0463ZM21.0623 49.0463C21.0623 43.4116 26.2543 38.8437 32.6591 38.8437C39.0638 38.8437 44.2559 43.4116 44.2559 49.0463C44.2559 54.681 39.0638 59.2488 32.6591 59.2488C26.2575 59.2422 21.0698 54.6782 21.0623 49.0463Z" fill="#FF7D54"/>
<path d="M33.7133 56.4664V55.4072C35.9643 54.8975 37.3194 52.8789 36.7401 50.8986C36.2609 49.2608 34.5814 48.1167 32.6591 48.1188C31.4945 48.1188 30.5505 47.2883 30.5505 46.2638C30.5505 45.2392 31.4945 44.4088 32.6591 44.4088C33.8236 44.4088 34.7676 45.2392 34.7676 46.2638C34.7676 46.776 35.2396 47.1913 35.8218 47.1913C36.4041 47.1913 36.8761 46.776 36.8761 46.2638C36.8689 44.5772 35.5696 43.1071 33.7133 42.6855V41.6262C33.7133 41.114 33.2413 40.6987 32.6591 40.6987C32.0768 40.6987 31.6048 41.114 31.6048 41.6262V42.6855C29.3538 43.1951 27.9987 45.2137 28.578 47.1941C29.0572 48.8318 30.7367 49.9759 32.6591 49.9738C33.8236 49.9738 34.7676 50.8043 34.7676 51.8288C34.7676 52.8534 33.8236 53.6839 32.6591 53.6839C31.4945 53.6839 30.5505 52.8534 30.5505 51.8288C30.5505 51.3166 30.0785 50.9013 29.4963 50.9013C28.9141 50.9013 28.442 51.3166 28.442 51.8288C28.4493 53.5154 29.7485 54.9855 31.6048 55.4072V56.4664C31.6048 56.9786 32.0768 57.3939 32.6591 57.3939C33.2413 57.3939 33.7133 56.9786 33.7133 56.4664Z" fill="#FF7D54"/>
<path d="M56.9069 43.4812H71.6665C72.2487 43.4812 72.7208 43.0659 72.7208 42.5537C72.7208 42.0415 72.2487 41.6262 71.6665 41.6262H56.9069C56.3247 41.6262 55.8527 42.0415 55.8527 42.5537C55.8527 43.0659 56.3247 43.4812 56.9069 43.4812Z" fill="#FF7D54"/>
<path d="M74.8293 43.4812H76.9378C77.52 43.4812 77.9921 43.0659 77.9921 42.5537C77.9921 42.0415 77.52 41.6262 76.9378 41.6262H74.8293C74.2471 41.6262 73.775 42.0415 73.775 42.5537C73.775 43.0659 74.2471 43.4812 74.8293 43.4812Z" fill="#FF7D54"/>
<circle cx="50" cy="50.9756" r="47.5" stroke="#FF7D54" stroke-width="5"/>
</svg>
