<svg width="147" height="35" viewBox="0 0 147 35" fill="none" xmlns="http://www.w3.org/2000/svg">
<g clip-path="url(#clip0)">
<path d="M89.1853 1.01099H83.4167V6.7795H89.1853V1.01099Z" fill="#EF4023"/>
<path d="M29.1148 1.01099H0V6.7795H29.1148V1.01099Z" fill="white"/>
<path d="M17.4353 9.73511H11.6667V34.4296H17.4353V9.73511Z" fill="white"/>
<path d="M112.532 1.01099H95.0835V6.7795H112.532V1.01099Z" fill="white"/>
<path d="M100.852 9.73511H95.0835V34.4296H100.852V9.73511Z" fill="white"/>
<path d="M62.7278 34.4166H68.4963V17.5129L62.7278 9.73511V34.4166Z" fill="white"/>
<path d="M44.113 1.01099H40.5612L26.2241 34.4165H32.6667L45.5519 4.38136L44.113 1.01099Z" fill="white"/>
<path d="M43.9445 15.5297L47.0685 22.8668H40.8074L38.2148 28.8945H49.6482L51.9945 34.4168H58.4371L47.1722 8.02417L43.9445 15.5297Z" fill="white"/>
<path d="M62.7278 1.01099V5.13321L85.1278 34.4165H89.25V30.3073L66.837 1.01099H62.7278Z" fill="white"/>
<path d="M129.5 0C120.154 0 112.544 7.86852 112.544 17.5389C112.544 26.6907 119.363 34.2222 128.022 35V29.7889C122.202 29.0111 117.678 23.8519 117.678 17.5389C117.678 10.6944 122.98 5.13333 129.5 5.13333C136.02 5.13333 141.309 10.6944 141.309 17.5389C141.309 23.8519 136.772 29.0241 130.965 29.7889V35C139.624 34.2222 146.443 26.6907 146.443 17.5389C146.456 7.86852 138.846 0 129.5 0Z" fill="white"/>
</g>
<defs>
<clipPath id="clip0">
<rect width="146.456" height="35" fill="white"/>
</clipPath>
</defs>
</svg>
